<?xml version="1.0" encoding="UTF-8" standalone="no"?>
<!DOCTYPE svg PUBLIC "-//W3C//DTD SVG 1.1//EN"
 "http://www.w3.org/Graphics/SVG/1.1/DTD/svg11.dtd">
<!-- Generated by graphviz version 2.40.1 (20161225.0304)
 -->
<!-- Title: state transitions Pages: 1 -->
<svg width="521pt" height="367pt"
 viewBox="0.00 0.00 521.10 367.00" xmlns="http://www.w3.org/2000/svg" xmlns:xlink="http://www.w3.org/1999/xlink">
<g id="graph0" class="graph" transform="scale(1 1) rotate(0) translate(4 363)">
<title>state transitions</title>
<polygon fill="#ffffff" stroke="transparent" points="-4,4 -4,-363 517.105,-363 517.105,4 -4,4"/>
<!-- initial -->
<g id="node1" class="node">
<title>initial</title>
<ellipse fill="#000000" stroke="#000000" stroke-width="2" cx="181" cy="-353.5" rx="5.5" ry="5.5"/>
</g>
<!-- request_cmd -->
<g id="node2" class="node">
<title>request_cmd</title>
<polygon fill="#ffffff" stroke="transparent" stroke-width="2" points="226.5,-300 135.5,-300 135.5,-264 226.5,-264 226.5,-300"/>
<text text-anchor="start" x="146.8254" y="-278.2" font-family="Helvetica,sans-Serif" font-size="12.00" fill="#000000">request_cmd</text>
<path fill="none" stroke="#000000" stroke-width="2" d="M147.8333,-265C147.8333,-265 214.1667,-265 214.1667,-265 219.8333,-265 225.5,-270.6667 225.5,-276.3333 225.5,-276.3333 225.5,-287.6667 225.5,-287.6667 225.5,-293.3333 219.8333,-299 214.1667,-299 214.1667,-299 147.8333,-299 147.8333,-299 142.1667,-299 136.5,-293.3333 136.5,-287.6667 136.5,-287.6667 136.5,-276.3333 136.5,-276.3333 136.5,-270.6667 142.1667,-265 147.8333,-265"/>
</g>
<!-- initial&#45;&gt;request_cmd -->
<g id="edge1" class="edge">
<title>initial&#45;&gt;request_cmd</title>
<path fill="none" stroke="#000000" d="M181,-347.8895C181,-339.8095 181,-324.335 181,-310.4122"/>
<polygon fill="#000000" stroke="#000000" points="184.5001,-310.2159 181,-300.2159 177.5001,-310.2159 184.5001,-310.2159"/>
<text text-anchor="start" x="181" y="-321" font-family="Helvetica,sans-Serif" font-size="10.00" fill="#000000">receive_request &#160;&#160;</text>
</g>
<!-- request_cmd&#45;&gt;request_cmd -->
<g id="edge4" class="edge">
<title>request_cmd&#45;&gt;request_cmd</title>
<path fill="none" stroke="#000000" d="M226.6519,-289.4131C234.8051,-288.4495 240.5,-285.9785 240.5,-282 240.5,-280.0107 239.0763,-278.3984 236.6334,-277.1628"/>
<polygon fill="#000000" stroke="#000000" points="237.2093,-273.6969 226.6519,-274.5869 235.4601,-280.4748 237.2093,-273.6969"/>
<text text-anchor="start" x="240.5" y="-279" font-family="Helvetica,sans-Serif" font-size="10.00" fill="#000000">parsed_cmd_len &lt; 4 &#160;&#160;</text>
</g>
<!-- request_arg -->
<g id="node3" class="node">
<title>request_arg</title>
<polygon fill="#ffffff" stroke="transparent" stroke-width="2" points="86,-210 0,-210 0,-174 86,-174 86,-210"/>
<text text-anchor="start" x="10.99" y="-188.2" font-family="Helvetica,sans-Serif" font-size="12.00" fill="#000000">request_arg</text>
<path fill="none" stroke="#000000" stroke-width="2" d="M12.3333,-175C12.3333,-175 73.6667,-175 73.6667,-175 79.3333,-175 85,-180.6667 85,-186.3333 85,-186.3333 85,-197.6667 85,-197.6667 85,-203.3333 79.3333,-209 73.6667,-209 73.6667,-209 12.3333,-209 12.3333,-209 6.6667,-209 1,-203.3333 1,-197.6667 1,-197.6667 1,-186.3333 1,-186.3333 1,-180.6667 6.6667,-175 12.3333,-175"/>
</g>
<!-- request_cmd&#45;&gt;request_arg -->
<g id="edge2" class="edge">
<title>request_cmd&#45;&gt;request_arg</title>
<path fill="none" stroke="#000000" d="M153.0736,-263.7872C131.8435,-249.9414 102.4568,-230.7762 79.3871,-215.7307"/>
<polygon fill="#000000" stroke="#000000" points="81.1729,-212.7168 70.8848,-210.1858 77.349,-218.5801 81.1729,-212.7168"/>
<text text-anchor="start" x="125" y="-237" font-family="Helvetica,sans-Serif" font-size="10.00" fill="#000000">&#39; &#39; &amp;&amp; valid_cmd():true &#160;&#160;</text>
</g>
<!-- request_CR -->
<g id="node4" class="node">
<title>request_CR</title>
<polygon fill="#ffffff" stroke="transparent" stroke-width="2" points="224,-120 138,-120 138,-84 224,-84 224,-120"/>
<text text-anchor="start" x="148.9954" y="-98.2" font-family="Helvetica,sans-Serif" font-size="12.00" fill="#000000">request_CR</text>
<path fill="none" stroke="#000000" stroke-width="2" d="M150.3333,-85C150.3333,-85 211.6667,-85 211.6667,-85 217.3333,-85 223,-90.6667 223,-96.3333 223,-96.3333 223,-107.6667 223,-107.6667 223,-113.3333 217.3333,-119 211.6667,-119 211.6667,-119 150.3333,-119 150.3333,-119 144.6667,-119 139,-113.3333 139,-107.6667 139,-107.6667 139,-96.3333 139,-96.3333 139,-90.6667 144.6667,-85 150.3333,-85"/>
</g>
<!-- request_cmd&#45;&gt;request_CR -->
<g id="edge3" class="edge">
<title>request_cmd&#45;&gt;request_CR</title>
<path fill="none" stroke="#000000" d="M226.7201,-268.9148C252.5473,-258.9182 282.6512,-242.2807 298,-216 308.7588,-197.5783 308.7588,-186.4217 298,-168 283.9827,-143.999 257.659,-128.0408 233.5254,-117.8386"/>
<polygon fill="#000000" stroke="#000000" points="234.6498,-114.5192 224.0643,-114.0747 232.0622,-121.0233 234.6498,-114.5192"/>
<text text-anchor="start" x="307" y="-189" font-family="Helvetica,sans-Serif" font-size="10.00" fill="#000000">&#39;\r&#39; &amp;&amp; valid_cmd():true &amp;&amp; valid_nargs():true &#160;&#160;</text>
</g>
<!-- request_arg&#45;&gt;request_arg -->
<g id="edge6" class="edge">
<title>request_arg&#45;&gt;request_arg</title>
<path fill="none" stroke="#000000" d="M86.0024,-200.5693C94.2017,-199.5439 100,-196.6875 100,-192 100,-189.6563 98.5504,-187.7703 96.0759,-186.342"/>
<polygon fill="#000000" stroke="#000000" points="96.5811,-182.8448 86.0024,-183.4307 94.6375,-189.5696 96.5811,-182.8448"/>
<text text-anchor="start" x="100" y="-207" font-family="Helvetica,sans-Serif" font-size="10.00" fill="#000000">has_maximum_args()/ &#160;&#160;</text>
<text text-anchor="start" x="100" y="-195" font-family="Helvetica,sans-Serif" font-size="10.00" fill="#000000">&#39; &#39;/ &#160;&#160;</text>
<text text-anchor="start" x="100" y="-183" font-family="Helvetica,sans-Serif" font-size="10.00" fill="#000000">match( [^&#39;\r&#39;&#39;\n&#39; &#39;]*) &amp;&amp; curr_arg_len &lt; 40/ &#160;&#160;</text>
<text text-anchor="start" x="100" y="-171" font-family="Helvetica,sans-Serif" font-size="10.00" fill="#000000">curr_arg_len &gt; 40 &#160;&#160;</text>
</g>
<!-- request_arg&#45;&gt;request_CR -->
<g id="edge5" class="edge">
<title>request_arg&#45;&gt;request_CR</title>
<path fill="none" stroke="#000000" d="M70.9264,-173.7872C92.1565,-159.9414 121.5432,-140.7762 144.6129,-125.7307"/>
<polygon fill="#000000" stroke="#000000" points="146.651,-128.5801 153.1152,-120.1858 142.8271,-122.7168 146.651,-128.5801"/>
<text text-anchor="start" x="125" y="-141" font-family="Helvetica,sans-Serif" font-size="10.00" fill="#000000">&#39;\r&#39; &amp;&amp; valid_nargs():true &#160;&#160;</text>
</g>
<!-- request_done -->
<g id="node5" class="node">
<title>request_done</title>
<polygon fill="#ffffff" stroke="transparent" stroke-width="2" points="228.5,-36 133.5,-36 133.5,0 228.5,0 228.5,-36"/>
<text text-anchor="start" x="144.8166" y="-14.2" font-family="Helvetica,sans-Serif" font-size="12.00" fill="#000000">request_done</text>
<path fill="none" stroke="#000000" stroke-width="2" d="M145.8333,-1C145.8333,-1 216.1667,-1 216.1667,-1 221.8333,-1 227.5,-6.6667 227.5,-12.3333 227.5,-12.3333 227.5,-23.6667 227.5,-23.6667 227.5,-29.3333 221.8333,-35 216.1667,-35 216.1667,-35 145.8333,-35 145.8333,-35 140.1667,-35 134.5,-29.3333 134.5,-23.6667 134.5,-23.6667 134.5,-12.3333 134.5,-12.3333 134.5,-6.6667 140.1667,-1 145.8333,-1"/>
</g>
<!-- request_CR&#45;&gt;request_done -->
<g id="edge7" class="edge">
<title>request_CR&#45;&gt;request_done</title>
<path fill="none" stroke="#000000" d="M181,-83.7733C181,-72.8758 181,-58.7946 181,-46.4587"/>
<polygon fill="#000000" stroke="#000000" points="184.5001,-46.1911 181,-36.1912 177.5001,-46.1912 184.5001,-46.1911"/>
<text text-anchor="start" x="181" y="-57" font-family="Helvetica,sans-Serif" font-size="10.00" fill="#000000">&#39;\n&#39; &#160;&#160;</text>
</g>
</g>
</svg>
