<?xml version="1.0" encoding="UTF-8" standalone="no"?>
<!DOCTYPE svg PUBLIC "-//W3C//DTD SVG 1.1//EN"
 "http://www.w3.org/Graphics/SVG/1.1/DTD/svg11.dtd">
<!-- Generated by graphviz version 2.40.1 (20161225.0304)
 -->
<!-- Title: state transitions Pages: 1 -->
<svg width="1139pt" height="330pt"
 viewBox="0.00 0.00 1139.21 330.00" xmlns="http://www.w3.org/2000/svg" xmlns:xlink="http://www.w3.org/1999/xlink">
<g id="graph0" class="graph" transform="scale(1 1) rotate(0) translate(4 326)">
<title>state transitions</title>
<polygon fill="#ffffff" stroke="transparent" points="-4,4 -4,-326 1135.21,-326 1135.21,4 -4,4"/>
<!-- initial -->
<g id="node1" class="node">
<title>initial</title>
<ellipse fill="#000000" stroke="#000000" stroke-width="2" cx="5.5" cy="-144" rx="5.5" ry="5.5"/>
</g>
<!-- request_cmd -->
<g id="node2" class="node">
<title>request_cmd</title>
<polygon fill="#ffffff" stroke="transparent" stroke-width="2" points="217.465,-162 126.465,-162 126.465,-126 217.465,-126 217.465,-162"/>
<text text-anchor="start" x="137.7904" y="-140.2" font-family="Helvetica,sans-Serif" font-size="12.00" fill="#000000">request_cmd</text>
<path fill="none" stroke="#000000" stroke-width="2" d="M138.7983,-127C138.7983,-127 205.1317,-127 205.1317,-127 210.7983,-127 216.465,-132.6667 216.465,-138.3333 216.465,-138.3333 216.465,-149.6667 216.465,-149.6667 216.465,-155.3333 210.7983,-161 205.1317,-161 205.1317,-161 138.7983,-161 138.7983,-161 133.1317,-161 127.465,-155.3333 127.465,-149.6667 127.465,-149.6667 127.465,-138.3333 127.465,-138.3333 127.465,-132.6667 133.1317,-127 138.7983,-127"/>
</g>
<!-- initial&#45;&gt;request_cmd -->
<g id="edge1" class="edge">
<title>initial&#45;&gt;request_cmd</title>
<path fill="none" stroke="#000000" d="M11.0386,-144C27.3342,-144 76.4639,-144 116.1928,-144"/>
<polygon fill="#000000" stroke="#000000" points="116.3264,-147.5001 126.3264,-144 116.3263,-140.5001 116.3264,-147.5001"/>
<text text-anchor="start" x="29" y="-147" font-family="Helvetica,sans-Serif" font-size="10.00" fill="#000000">receive_request &#160;&#160;</text>
</g>
<!-- request_cmd&#45;&gt;request_cmd -->
<g id="edge9" class="edge">
<title>request_cmd&#45;&gt;request_cmd</title>
<path fill="none" stroke="#000000" d="M153.0081,-162.0931C151.7007,-169.6198 158.0197,-176 171.965,-176 179.1556,-176 184.3185,-174.3037 187.4538,-171.6286"/>
<polygon fill="#000000" stroke="#000000" points="190.7931,-172.6872 190.9219,-162.0931 184.2146,-170.2946 190.7931,-172.6872"/>
<text text-anchor="start" x="122.3645" y="-179" font-family="Helvetica,sans-Serif" font-size="10.00" fill="#000000">parsed_cmd_len &lt; 4 &#160;&#160;</text>
</g>
<!-- request_arg -->
<g id="node3" class="node">
<title>request_arg</title>
<polygon fill="#ffffff" stroke="transparent" stroke-width="2" points="512.8325,-256 426.8325,-256 426.8325,-220 512.8325,-220 512.8325,-256"/>
<text text-anchor="start" x="437.8225" y="-234.2" font-family="Helvetica,sans-Serif" font-size="12.00" fill="#000000">request_arg</text>
<path fill="none" stroke="#000000" stroke-width="2" d="M439.1658,-221C439.1658,-221 500.4992,-221 500.4992,-221 506.1658,-221 511.8325,-226.6667 511.8325,-232.3333 511.8325,-232.3333 511.8325,-243.6667 511.8325,-243.6667 511.8325,-249.3333 506.1658,-255 500.4992,-255 500.4992,-255 439.1658,-255 439.1658,-255 433.4992,-255 427.8325,-249.3333 427.8325,-243.6667 427.8325,-243.6667 427.8325,-232.3333 427.8325,-232.3333 427.8325,-226.6667 433.4992,-221 439.1658,-221"/>
</g>
<!-- request_cmd&#45;&gt;request_arg -->
<g id="edge2" class="edge">
<title>request_cmd&#45;&gt;request_arg</title>
<path fill="none" stroke="#000000" d="M183.0802,-162.1307C194.1646,-178.4525 212.7829,-201.5758 235.465,-213 292.4438,-241.6983 366.949,-244.7134 416.4986,-242.6842"/>
<polygon fill="#000000" stroke="#000000" points="416.8624,-246.1706 426.6778,-242.1821 416.5175,-239.1791 416.8624,-246.1706"/>
<text text-anchor="start" x="239.0745" y="-244" font-family="Helvetica,sans-Serif" font-size="10.00" fill="#000000">&#39; &#39; &amp;&amp; valid_cmd():true &#160;&#160;</text>
</g>
<!-- request_invalid_cmd_error -->
<g id="node4" class="node">
<title>request_invalid_cmd_error</title>
<polygon fill="#ffffff" stroke="transparent" stroke-width="2" points="551.8325,-206 387.8325,-206 387.8325,-170 551.8325,-170 551.8325,-206"/>
<text text-anchor="start" x="398.8237" y="-184.2" font-family="Helvetica,sans-Serif" font-size="12.00" fill="#000000">request_invalid_cmd_error</text>
<path fill="none" stroke="#000000" stroke-width="2" d="M400.1658,-171C400.1658,-171 539.4992,-171 539.4992,-171 545.1658,-171 550.8325,-176.6667 550.8325,-182.3333 550.8325,-182.3333 550.8325,-193.6667 550.8325,-193.6667 550.8325,-199.3333 545.1658,-205 539.4992,-205 539.4992,-205 400.1658,-205 400.1658,-205 394.4992,-205 388.8325,-199.3333 388.8325,-193.6667 388.8325,-193.6667 388.8325,-182.3333 388.8325,-182.3333 388.8325,-176.6667 394.4992,-171 400.1658,-171"/>
</g>
<!-- request_cmd&#45;&gt;request_invalid_cmd_error -->
<g id="edge3" class="edge">
<title>request_cmd&#45;&gt;request_invalid_cmd_error</title>
<path fill="none" stroke="#000000" d="M194.001,-162.0923C205.5919,-170.467 220.481,-179.5351 235.465,-184 280.9636,-197.5574 333.6657,-199.589 377.557,-197.7841"/>
<polygon fill="#000000" stroke="#000000" points="377.8266,-201.2752 387.6458,-197.2961 377.4883,-194.2834 377.8266,-201.2752"/>
<text text-anchor="start" x="237.1295" y="-201" font-family="Helvetica,sans-Serif" font-size="10.00" fill="#000000">&#39; &#39; &amp;&amp; valid_cmd():false &#160;&#160;</text>
</g>
<!-- request_cmd&#45;&gt;request_invalid_cmd_error -->
<g id="edge4" class="edge">
<title>request_cmd&#45;&gt;request_invalid_cmd_error</title>
<path fill="none" stroke="#000000" d="M217.7481,-150.4919C223.7083,-151.3361 229.7321,-152.189 235.465,-153 285.8254,-160.1243 298.4741,-161.5009 348.78,-169 358.1498,-170.3967 367.9227,-171.8825 377.6749,-173.384"/>
<polygon fill="#000000" stroke="#000000" points="377.3952,-176.8822 387.8126,-174.9513 378.4648,-169.9644 377.3952,-176.8822"/>
<text text-anchor="start" x="235.465" y="-172" font-family="Helvetica,sans-Serif" font-size="10.00" fill="#000000">&#39;\r&#39; &amp;&amp; valid_cmd():false &#160;&#160;</text>
</g>
<!-- request_CR -->
<g id="node5" class="node">
<title>request_CR</title>
<polygon fill="#ffffff" stroke="transparent" stroke-width="2" points="871.318,-225 785.318,-225 785.318,-189 871.318,-189 871.318,-225"/>
<text text-anchor="start" x="796.3134" y="-203.2" font-family="Helvetica,sans-Serif" font-size="12.00" fill="#000000">request_CR</text>
<path fill="none" stroke="#000000" stroke-width="2" d="M797.6513,-190C797.6513,-190 858.9847,-190 858.9847,-190 864.6513,-190 870.318,-195.6667 870.318,-201.3333 870.318,-201.3333 870.318,-212.6667 870.318,-212.6667 870.318,-218.3333 864.6513,-224 858.9847,-224 858.9847,-224 797.6513,-224 797.6513,-224 791.9847,-224 786.318,-218.3333 786.318,-212.6667 786.318,-212.6667 786.318,-201.3333 786.318,-201.3333 786.318,-195.6667 791.9847,-190 797.6513,-190"/>
</g>
<!-- request_cmd&#45;&gt;request_CR -->
<g id="edge5" class="edge">
<title>request_cmd&#45;&gt;request_CR</title>
<path fill="none" stroke="#000000" d="M217.702,-139.258C311.9189,-130.951 533.6216,-118.9746 710.318,-168 718.7539,-170.3406 720.1229,-172.9208 728.318,-176 743.392,-181.6638 760.0091,-187.1202 775.296,-191.8344"/>
<polygon fill="#000000" stroke="#000000" points="774.5343,-195.2609 785.1199,-194.8198 776.5697,-188.5633 774.5343,-195.2609"/>
<text text-anchor="start" x="366.78" y="-143" font-family="Helvetica,sans-Serif" font-size="10.00" fill="#000000">&#39;\r&#39; &amp;&amp; valid_cmd():true &amp;&amp; valid_nargs():true &#160;&#160;</text>
</g>
<!-- request_missing_args_error -->
<g id="node6" class="node">
<title>request_missing_args_error</title>
<polygon fill="#ffffff" stroke="transparent" stroke-width="2" points="913.818,-169 742.818,-169 742.818,-133 913.818,-133 913.818,-169"/>
<text text-anchor="start" x="754.1432" y="-147.2" font-family="Helvetica,sans-Serif" font-size="12.00" fill="#000000">request_missing_args_error</text>
<path fill="none" stroke="#000000" stroke-width="2" d="M755.1513,-134C755.1513,-134 901.4847,-134 901.4847,-134 907.1513,-134 912.818,-139.6667 912.818,-145.3333 912.818,-145.3333 912.818,-156.6667 912.818,-156.6667 912.818,-162.3333 907.1513,-168 901.4847,-168 901.4847,-168 755.1513,-168 755.1513,-168 749.4847,-168 743.818,-162.3333 743.818,-156.6667 743.818,-156.6667 743.818,-145.3333 743.818,-145.3333 743.818,-139.6667 749.4847,-134 755.1513,-134"/>
</g>
<!-- request_cmd&#45;&gt;request_missing_args_error -->
<g id="edge6" class="edge">
<title>request_cmd&#45;&gt;request_missing_args_error</title>
<path fill="none" stroke="#000000" d="M217.7937,-135.0684C257.1305,-127.9097 315.4363,-118.5026 366.78,-115 519.1102,-104.6083 559.2987,-93.5138 710.318,-116 729.7563,-118.8943 750.4578,-124.2263 769.006,-129.871"/>
<polygon fill="#000000" stroke="#000000" points="768.1891,-133.2828 778.7781,-132.9324 770.2818,-126.6029 768.1891,-133.2828"/>
<text text-anchor="start" x="410.116" y="-118" font-family="Helvetica,sans-Serif" font-size="10.00" fill="#000000">&#39;\r&#39; &amp;&amp; valid_nargs():false &#160;&#160;</text>
</g>
<!-- request_invalid_termination_error -->
<g id="node7" class="node">
<title>request_invalid_termination_error</title>
<polygon fill="#ffffff" stroke="transparent" stroke-width="2" points="928.318,-107 728.318,-107 728.318,-71 928.318,-71 928.318,-107"/>
<text text-anchor="start" x="738.9726" y="-85.2" font-family="Helvetica,sans-Serif" font-size="12.00" fill="#000000">request_invalid_termination_error</text>
<path fill="none" stroke="#000000" stroke-width="2" d="M740.6513,-72C740.6513,-72 915.9847,-72 915.9847,-72 921.6513,-72 927.318,-77.6667 927.318,-83.3333 927.318,-83.3333 927.318,-94.6667 927.318,-94.6667 927.318,-100.3333 921.6513,-106 915.9847,-106 915.9847,-106 740.6513,-106 740.6513,-106 734.9847,-106 729.318,-100.3333 729.318,-94.6667 729.318,-94.6667 729.318,-83.3333 729.318,-83.3333 729.318,-77.6667 734.9847,-72 740.6513,-72"/>
</g>
<!-- request_cmd&#45;&gt;request_invalid_termination_error -->
<g id="edge7" class="edge">
<title>request_cmd&#45;&gt;request_invalid_termination_error</title>
<path fill="none" stroke="#000000" d="M204.8947,-125.9221C214.5331,-121.185 225.2338,-116.4452 235.465,-113 291.8493,-94.0133 307.5687,-92.8055 366.78,-87 486.4262,-75.2691 624.3576,-77.9753 718.0461,-82.2257"/>
<polygon fill="#000000" stroke="#000000" points="717.9556,-85.7252 728.1081,-82.6958 718.2824,-78.7328 717.9556,-85.7252"/>
<text text-anchor="start" x="459.286" y="-90" font-family="Helvetica,sans-Serif" font-size="10.00" fill="#000000">&#39;\n&#39; &#160;&#160;</text>
</g>
<!-- request_length_error -->
<g id="node8" class="node">
<title>request_length_error</title>
<polygon fill="#ffffff" stroke="transparent" stroke-width="2" points="536.3325,-36 403.3325,-36 403.3325,0 536.3325,0 536.3325,-36"/>
<text text-anchor="start" x="414.6519" y="-14.2" font-family="Helvetica,sans-Serif" font-size="12.00" fill="#000000">request_length_error</text>
<path fill="none" stroke="#000000" stroke-width="2" d="M415.6658,-1C415.6658,-1 523.9992,-1 523.9992,-1 529.6658,-1 535.3325,-6.6667 535.3325,-12.3333 535.3325,-12.3333 535.3325,-23.6667 535.3325,-23.6667 535.3325,-29.3333 529.6658,-35 523.9992,-35 523.9992,-35 415.6658,-35 415.6658,-35 409.9992,-35 404.3325,-29.3333 404.3325,-23.6667 404.3325,-23.6667 404.3325,-12.3333 404.3325,-12.3333 404.3325,-6.6667 409.9992,-1 415.6658,-1"/>
</g>
<!-- request_cmd&#45;&gt;request_length_error -->
<g id="edge8" class="edge">
<title>request_cmd&#45;&gt;request_length_error</title>
<path fill="none" stroke="#000000" d="M177.5044,-125.8469C185.8495,-101.9205 204.1021,-60.579 235.465,-41 282.0894,-11.8936 344.3781,-7.0146 393.021,-8.944"/>
<polygon fill="#000000" stroke="#000000" points="393.0207,-12.4482 403.1832,-9.4527 393.3708,-5.457 393.0207,-12.4482"/>
<text text-anchor="start" x="242.522" y="-44" font-family="Helvetica,sans-Serif" font-size="10.00" fill="#000000">parsed_cmd_len &gt; 4 &#160;&#160;</text>
</g>
<!-- request_arg&#45;&gt;request_arg -->
<g id="edge13" class="edge">
<title>request_arg&#45;&gt;request_arg</title>
<path fill="none" stroke="#000000" d="M437.1225,-256.0931C434.8667,-263.6198 445.77,-270 469.8325,-270 482.9917,-270 492.2153,-268.0919 497.5034,-265.1316"/>
<polygon fill="#000000" stroke="#000000" points="500.7299,-266.5318 502.5425,-256.0931 494.6159,-263.1231 500.7299,-266.5318"/>
<text text-anchor="start" x="375.975" y="-309" font-family="Helvetica,sans-Serif" font-size="10.00" fill="#000000">has_maximum_args()/ &#160;&#160;</text>
<text text-anchor="start" x="375.975" y="-297" font-family="Helvetica,sans-Serif" font-size="10.00" fill="#000000">&#39; &#39;/ &#160;&#160;</text>
<text text-anchor="start" x="375.975" y="-285" font-family="Helvetica,sans-Serif" font-size="10.00" fill="#000000">match( [^&#39;\r&#39;&#39;\n&#39; &#39;]*) &amp;&amp; curr_arg_len &lt; 40/ &#160;&#160;</text>
<text text-anchor="start" x="375.975" y="-273" font-family="Helvetica,sans-Serif" font-size="10.00" fill="#000000">curr_arg_len &gt; 40 &#160;&#160;</text>
</g>
<!-- request_arg&#45;&gt;request_CR -->
<g id="edge10" class="edge">
<title>request_arg&#45;&gt;request_CR</title>
<path fill="none" stroke="#000000" d="M513.0742,-234.2607C578.8357,-228.574 703.8467,-217.7636 775.0939,-211.6025"/>
<polygon fill="#000000" stroke="#000000" points="775.541,-215.077 785.2023,-210.7284 774.9379,-208.1031 775.541,-215.077"/>
<text text-anchor="start" x="592.83" y="-230" font-family="Helvetica,sans-Serif" font-size="10.00" fill="#000000">&#39;\r&#39; &amp;&amp; valid_nargs():true &#160;&#160;</text>
</g>
<!-- request_arg&#45;&gt;request_missing_args_error -->
<g id="edge11" class="edge">
<title>request_arg&#45;&gt;request_missing_args_error</title>
<path fill="none" stroke="#000000" d="M512.8916,-230.6688C531.7343,-226.6744 553.8399,-220.9016 572.885,-213 581.5448,-209.4072 582.1785,-205.4782 590.885,-202 636.0206,-183.9688 688.6535,-171.8351 732.8786,-163.9438"/>
<polygon fill="#000000" stroke="#000000" points="733.5091,-167.3868 742.7617,-162.2254 732.3099,-160.4902 733.5091,-167.3868"/>
<text text-anchor="start" x="590.885" y="-205" font-family="Helvetica,sans-Serif" font-size="10.00" fill="#000000">&#39;\r&#39; &amp;&amp; valid_nargs():false &#160;&#160;</text>
</g>
<!-- request_arg&#45;&gt;request_invalid_termination_error -->
<g id="edge12" class="edge">
<title>request_arg&#45;&gt;request_invalid_termination_error</title>
<path fill="none" stroke="#000000" d="M512.8356,-237.1338C533.3656,-234.5478 556.8833,-228.0978 572.885,-213 592.8257,-194.1858 571.2213,-173.1035 590.885,-154 624.7268,-121.1224 673.5372,-104.5133 718.112,-96.2555"/>
<polygon fill="#000000" stroke="#000000" points="718.8866,-99.6736 728.1446,-94.5218 717.6946,-92.7758 718.8866,-99.6736"/>
<text text-anchor="start" x="640.055" y="-157" font-family="Helvetica,sans-Serif" font-size="10.00" fill="#000000">&#39;\n&#39; &#160;&#160;</text>
</g>
<!-- request_done -->
<g id="node9" class="node">
<title>request_done</title>
<polygon fill="#ffffff" stroke="transparent" stroke-width="2" points="1131.21,-250 1036.21,-250 1036.21,-214 1131.21,-214 1131.21,-250"/>
<text text-anchor="start" x="1047.5266" y="-228.2" font-family="Helvetica,sans-Serif" font-size="12.00" fill="#000000">request_done</text>
<path fill="none" stroke="#000000" stroke-width="2" d="M1048.5433,-215C1048.5433,-215 1118.8767,-215 1118.8767,-215 1124.5433,-215 1130.21,-220.6667 1130.21,-226.3333 1130.21,-226.3333 1130.21,-237.6667 1130.21,-237.6667 1130.21,-243.3333 1124.5433,-249 1118.8767,-249 1118.8767,-249 1048.5433,-249 1048.5433,-249 1042.8767,-249 1037.21,-243.3333 1037.21,-237.6667 1037.21,-237.6667 1037.21,-226.3333 1037.21,-226.3333 1037.21,-220.6667 1042.8767,-215 1048.5433,-215"/>
</g>
<!-- request_CR&#45;&gt;request_done -->
<g id="edge14" class="edge">
<title>request_CR&#45;&gt;request_done</title>
<path fill="none" stroke="#000000" d="M871.353,-211.2126C913.8662,-215.3742 979.1651,-221.7662 1026.1276,-226.3633"/>
<polygon fill="#000000" stroke="#000000" points="1025.8594,-229.8537 1036.1528,-227.3447 1026.5414,-222.887 1025.8594,-229.8537"/>
<text text-anchor="start" x="971.7175" y="-228" font-family="Helvetica,sans-Serif" font-size="10.00" fill="#000000">&#39;\n&#39; &#160;&#160;</text>
</g>
<!-- request_error -->
<g id="node10" class="node">
<title>request_error</title>
<polygon fill="#ffffff" stroke="transparent" stroke-width="2" points="1130.71,-200 1036.71,-200 1036.71,-164 1130.71,-164 1130.71,-200"/>
<text text-anchor="start" x="1047.7052" y="-178.2" font-family="Helvetica,sans-Serif" font-size="12.00" fill="#000000">request_error</text>
<path fill="none" stroke="#000000" stroke-width="2" d="M1049.0433,-165C1049.0433,-165 1118.3767,-165 1118.3767,-165 1124.0433,-165 1129.71,-170.6667 1129.71,-176.3333 1129.71,-176.3333 1129.71,-187.6667 1129.71,-187.6667 1129.71,-193.3333 1124.0433,-199 1118.3767,-199 1118.3767,-199 1049.0433,-199 1049.0433,-199 1043.3767,-199 1037.71,-193.3333 1037.71,-187.6667 1037.71,-187.6667 1037.71,-176.3333 1037.71,-176.3333 1037.71,-170.6667 1043.3767,-165 1049.0433,-165"/>
</g>
<!-- request_CR&#45;&gt;request_error -->
<g id="edge15" class="edge">
<title>request_CR&#45;&gt;request_error</title>
<path fill="none" stroke="#000000" d="M871.353,-202.7874C913.9986,-198.6128 979.5722,-192.1939 1026.5659,-187.5938"/>
<polygon fill="#000000" stroke="#000000" points="1026.9826,-191.0698 1036.594,-186.6121 1026.3005,-184.1031 1026.9826,-191.0698"/>
<text text-anchor="start" x="946.318" y="-198" font-family="Helvetica,sans-Serif" font-size="10.00" fill="#000000">match( [^&#39;\n&#39;]*) &#160;&#160;</text>
</g>
</g>
</svg>
