<?xml version="1.0" encoding="UTF-8" standalone="no"?>
<!DOCTYPE svg PUBLIC "-//W3C//DTD SVG 1.1//EN"
 "http://www.w3.org/Graphics/SVG/1.1/DTD/svg11.dtd">
<!-- Generated by graphviz version 2.40.1 (20161225.0304)
 -->
<!-- Title: g Pages: 1 -->
<svg width="587pt" height="233pt"
 viewBox="0.00 0.00 587.12 232.91" xmlns="http://www.w3.org/2000/svg" xmlns:xlink="http://www.w3.org/1999/xlink">
<g id="graph0" class="graph" transform="scale(1 1) rotate(0) translate(4 228.9073)">
<title>g</title>
<polygon fill="#ffffff" stroke="transparent" points="-4,4 -4,-228.9073 583.1218,-228.9073 583.1218,4 -4,4"/>
<!-- S0 -->
<g id="node1" class="node">
<title>S0</title>
<ellipse fill="none" stroke="#000000" cx="22" cy="-22" rx="18" ry="18"/>
<ellipse fill="none" stroke="#000000" cx="22" cy="-22" rx="22" ry="22"/>
<text text-anchor="middle" x="22" y="-17.8" font-family="Times,serif" font-size="14.00" fill="#000000">0</text>
</g>
<!-- S1 -->
<g id="node2" class="node">
<title>S1</title>
<ellipse fill="none" stroke="#000000" cx="157.8556" cy="-68" rx="18" ry="18"/>
<text text-anchor="middle" x="157.8556" y="-63.8" font-family="Times,serif" font-size="14.00" fill="#000000">1</text>
</g>
<!-- S0&#45;&gt;S1 -->
<g id="edge1" class="edge">
<title>S0&#45;&gt;S1</title>
<path fill="none" stroke="#000000" d="M42.9297,-29.0867C66.5848,-37.0962 105.1544,-50.1556 131.0084,-58.9097"/>
<polygon fill="#000000" stroke="#000000" points="129.9732,-62.2543 140.5675,-62.1463 132.2182,-55.6241 129.9732,-62.2543"/>
<text text-anchor="middle" x="91.9278" y="-77" font-family="Times,serif" font-size="14.00" fill="#000000">&#39;f&#39;, &#39;F&#39;</text>
<text text-anchor="middle" x="91.9278" y="-60.2" font-family="Times,serif" font-size="14.00" fill="#000000">may_eq(c)</text>
</g>
<!-- NEQ -->
<g id="node5" class="node">
<title>NEQ</title>
<ellipse fill="none" stroke="#000000" cx="544.2432" cy="-92" rx="30.7716" ry="30.7716"/>
<ellipse fill="none" stroke="#000000" cx="544.2432" cy="-92" rx="34.7577" ry="34.7577"/>
<text text-anchor="middle" x="544.2432" y="-87.8" font-family="Times,serif" font-size="14.00" fill="#000000">NEQ</text>
</g>
<!-- S0&#45;&gt;NEQ -->
<g id="edge2" class="edge">
<title>S0&#45;&gt;NEQ</title>
<path fill="none" stroke="#000000" d="M44.0256,-17.7962C70.8203,-13.0557 117.4822,-6 157.8556,-6 157.8556,-6 157.8556,-6 409.7069,-6 450.154,-6 488.1984,-33.9361 513.4401,-57.9642"/>
<polygon fill="#000000" stroke="#000000" points="511.2696,-60.7389 520.8512,-65.2605 516.1806,-55.7507 511.2696,-60.7389"/>
<text text-anchor="middle" x="289.7112" y="-27" font-family="Times,serif" font-size="14.00" fill="#000000">ANY</text>
<text text-anchor="middle" x="289.7112" y="-10.2" font-family="Times,serif" font-size="14.00" fill="#000000">neq(c)</text>
</g>
<!-- S2 -->
<g id="node3" class="node">
<title>S2</title>
<ellipse fill="none" stroke="#000000" cx="289.7112" cy="-117" rx="18" ry="18"/>
<text text-anchor="middle" x="289.7112" y="-112.8" font-family="Times,serif" font-size="14.00" fill="#000000">2</text>
</g>
<!-- S1&#45;&gt;S2 -->
<g id="edge3" class="edge">
<title>S1&#45;&gt;S2</title>
<path fill="none" stroke="#000000" d="M174.6773,-74.6251C180.7149,-76.9809 187.5807,-79.6346 193.8556,-82 217.182,-90.7932 243.8252,-100.4941 263.0918,-107.4483"/>
<polygon fill="#000000" stroke="#000000" points="262.1084,-110.8142 272.7028,-110.9104 264.4808,-104.2284 262.1084,-110.8142"/>
<text text-anchor="middle" x="223.7834" y="-124" font-family="Times,serif" font-size="14.00" fill="#000000">&#39;o&#39;, &#39;O&#39;</text>
<text text-anchor="middle" x="223.7834" y="-107.2" font-family="Times,serif" font-size="14.00" fill="#000000">may_eq(c)</text>
</g>
<!-- S1&#45;&gt;NEQ -->
<g id="edge4" class="edge">
<title>S1&#45;&gt;NEQ</title>
<path fill="none" stroke="#000000" d="M176.0621,-67.7077C211.999,-67.2618 294.574,-66.8878 363.7996,-71.4 410.0482,-74.4146 462.676,-80.7588 499.1099,-85.6152"/>
<polygon fill="#000000" stroke="#000000" points="499.0258,-89.1355 509.4043,-87.0052 499.9626,-82.1985 499.0258,-89.1355"/>
<text text-anchor="middle" x="344.7554" y="-93" font-family="Times,serif" font-size="14.00" fill="#000000">ANY</text>
<text text-anchor="middle" x="344.7554" y="-76.2" font-family="Times,serif" font-size="14.00" fill="#000000">neq(c)</text>
</g>
<!-- EQ -->
<g id="node4" class="node">
<title>EQ</title>
<ellipse fill="none" stroke="#000000" cx="409.7069" cy="-197" rx="23.8281" ry="23.8281"/>
<ellipse fill="none" stroke="#000000" cx="409.7069" cy="-197" rx="27.8149" ry="27.8149"/>
<text text-anchor="middle" x="409.7069" y="-192.8" font-family="Times,serif" font-size="14.00" fill="#000000">EQ</text>
</g>
<!-- S2&#45;&gt;EQ -->
<g id="edge5" class="edge">
<title>S2&#45;&gt;EQ</title>
<path fill="none" stroke="#000000" d="M304.9087,-127.1321C323.1389,-139.2859 354.1896,-159.9872 377.7731,-175.71"/>
<polygon fill="#000000" stroke="#000000" points="376.1418,-178.829 386.4037,-181.464 380.0248,-173.0047 376.1418,-178.829"/>
<text text-anchor="middle" x="344.7554" y="-185" font-family="Times,serif" font-size="14.00" fill="#000000">&#39;o&#39;, &#39;O</text>
<text text-anchor="middle" x="344.7554" y="-168.2" font-family="Times,serif" font-size="14.00" fill="#000000">eq(c)&#39;</text>
</g>
<!-- S2&#45;&gt;NEQ -->
<g id="edge6" class="edge">
<title>S2&#45;&gt;NEQ</title>
<path fill="none" stroke="#000000" d="M308.0165,-115.2021C347.6136,-111.3129 442.2211,-102.0206 498.9651,-96.4472"/>
<polygon fill="#000000" stroke="#000000" points="499.488,-99.9128 509.098,-95.4519 498.8037,-92.9463 499.488,-99.9128"/>
<text text-anchor="middle" x="409.7069" y="-128" font-family="Times,serif" font-size="14.00" fill="#000000">ANY</text>
<text text-anchor="middle" x="409.7069" y="-111.2" font-family="Times,serif" font-size="14.00" fill="#000000">neq(c)</text>
</g>
<!-- EQ&#45;&gt;NEQ -->
<g id="edge7" class="edge">
<title>EQ&#45;&gt;NEQ</title>
<path fill="none" stroke="#000000" d="M431.9228,-179.6614C452.7093,-163.4384 484.1178,-138.9254 508.4411,-119.942"/>
<polygon fill="#000000" stroke="#000000" points="510.6628,-122.6479 516.3927,-113.7362 506.356,-117.1296 510.6628,-122.6479"/>
<text text-anchor="middle" x="473.4894" y="-181" font-family="Times,serif" font-size="14.00" fill="#000000">ANY</text>
<text text-anchor="middle" x="473.4894" y="-164.2" font-family="Times,serif" font-size="14.00" fill="#000000">neq(c)</text>
</g>
</g>
</svg>
