<svg xmlns="http://www.w3.org/2000/svg" xmlns:xlink="http://www.w3.org/1999/xlink" width="587pt" height="233pt" viewBox="0 0 587.12 232.91"><g id="graph0" class="graph" transform="scale(1 1) rotate(0) translate(4 228.9073)"><title>g</title><polygon fill="#fff" stroke="transparent" points="-4 4 -4 -228.907 583.122 -228.907 583.122 4 -4 4"/><g id="node1" class="node"><title>S0</title><ellipse cx="22" cy="-22" fill="none" stroke="#000" rx="18" ry="18"/><ellipse cx="22" cy="-22" fill="none" stroke="#000" rx="22" ry="22"/><text x="22" y="-17.8" fill="#000" font-family="Times,serif" font-size="14" text-anchor="middle">0</text></g><g id="node2" class="node"><title>S1</title><ellipse cx="157.856" cy="-68" fill="none" stroke="#000" rx="18" ry="18"/><text x="157.856" y="-63.8" fill="#000" font-family="Times,serif" font-size="14" text-anchor="middle">1</text></g><g id="edge1" class="edge"><title>S0-&gt;S1</title><path fill="none" stroke="#000" d="M42.9297,-29.0867C66.5848,-37.0962 105.1544,-50.1556 131.0084,-58.9097"/><polygon fill="#000" stroke="#000" points="129.973 -62.254 140.567 -62.146 132.218 -55.624 129.973 -62.254"/><text x="91.928" y="-77" fill="#000" font-family="Times,serif" font-size="14" text-anchor="middle">&apos;f&apos;, &apos;F&apos;</text><text x="91.928" y="-60.2" fill="#000" font-family="Times,serif" font-size="14" text-anchor="middle">may_eq(c)</text></g><g id="node5" class="node"><title>NEQ</title><ellipse cx="544.243" cy="-92" fill="none" stroke="#000" rx="30.772" ry="30.772"/><ellipse cx="544.243" cy="-92" fill="none" stroke="#000" rx="34.758" ry="34.758"/><text x="544.243" y="-87.8" fill="#000" font-family="Times,serif" font-size="14" text-anchor="middle">NEQ</text></g><g id="edge2" class="edge"><title>S0-&gt;NEQ</title><path fill="none" stroke="#000" d="M44.0256,-17.7962C70.8203,-13.0557 117.4822,-6 157.8556,-6 157.8556,-6 157.8556,-6 409.7069,-6 450.154,-6 488.1984,-33.9361 513.4401,-57.9642"/><polygon fill="#000" stroke="#000" points="511.27 -60.739 520.851 -65.26 516.181 -55.751 511.27 -60.739"/><text x="289.711" y="-27" fill="#000" font-family="Times,serif" font-size="14" text-anchor="middle">ANY</text><text x="289.711" y="-10.2" fill="#000" font-family="Times,serif" font-size="14" text-anchor="middle">neq(c)</text></g><g id="node3" class="node"><title>S2</title><ellipse cx="289.711" cy="-117" fill="none" stroke="#000" rx="18" ry="18"/><text x="289.711" y="-112.8" fill="#000" font-family="Times,serif" font-size="14" text-anchor="middle">2</text></g><g id="edge3" class="edge"><title>S1-&gt;S2</title><path fill="none" stroke="#000" d="M174.6773,-74.6251C180.7149,-76.9809 187.5807,-79.6346 193.8556,-82 217.182,-90.7932 243.8252,-100.4941 263.0918,-107.4483"/><polygon fill="#000" stroke="#000" points="262.108 -110.814 272.703 -110.91 264.481 -104.228 262.108 -110.814"/><text x="223.783" y="-124" fill="#000" font-family="Times,serif" font-size="14" text-anchor="middle">&apos;o&apos;, &apos;O&apos;</text><text x="223.783" y="-107.2" fill="#000" font-family="Times,serif" font-size="14" text-anchor="middle">may_eq(c)</text></g><g id="edge4" class="edge"><title>S1-&gt;NEQ</title><path fill="none" stroke="#000" d="M176.0621,-67.7077C211.999,-67.2618 294.574,-66.8878 363.7996,-71.4 410.0482,-74.4146 462.676,-80.7588 499.1099,-85.6152"/><polygon fill="#000" stroke="#000" points="499.026 -89.135 509.404 -87.005 499.963 -82.198 499.026 -89.135"/><text x="344.755" y="-93" fill="#000" font-family="Times,serif" font-size="14" text-anchor="middle">ANY</text><text x="344.755" y="-76.2" fill="#000" font-family="Times,serif" font-size="14" text-anchor="middle">neq(c)</text></g><g id="node4" class="node"><title>EQ</title><ellipse cx="409.707" cy="-197" fill="none" stroke="#000" rx="23.828" ry="23.828"/><ellipse cx="409.707" cy="-197" fill="none" stroke="#000" rx="27.815" ry="27.815"/><text x="409.707" y="-192.8" fill="#000" font-family="Times,serif" font-size="14" text-anchor="middle">EQ</text></g><g id="edge5" class="edge"><title>S2-&gt;EQ</title><path fill="none" stroke="#000" d="M304.9087,-127.1321C323.1389,-139.2859 354.1896,-159.9872 377.7731,-175.71"/><polygon fill="#000" stroke="#000" points="376.142 -178.829 386.404 -181.464 380.025 -173.005 376.142 -178.829"/><text x="344.755" y="-185" fill="#000" font-family="Times,serif" font-size="14" text-anchor="middle">&apos;o&apos;, &apos;O</text><text x="344.755" y="-168.2" fill="#000" font-family="Times,serif" font-size="14" text-anchor="middle">eq(c)&apos;</text></g><g id="edge6" class="edge"><title>S2-&gt;NEQ</title><path fill="none" stroke="#000" d="M308.0165,-115.2021C347.6136,-111.3129 442.2211,-102.0206 498.9651,-96.4472"/><polygon fill="#000" stroke="#000" points="499.488 -99.913 509.098 -95.452 498.804 -92.946 499.488 -99.913"/><text x="409.707" y="-128" fill="#000" font-family="Times,serif" font-size="14" text-anchor="middle">ANY</text><text x="409.707" y="-111.2" fill="#000" font-family="Times,serif" font-size="14" text-anchor="middle">neq(c)</text></g><g id="edge7" class="edge"><title>EQ-&gt;NEQ</title><path fill="none" stroke="#000" d="M431.9228,-179.6614C452.7093,-163.4384 484.1178,-138.9254 508.4411,-119.942"/><polygon fill="#000" stroke="#000" points="510.663 -122.648 516.393 -113.736 506.356 -117.13 510.663 -122.648"/><text x="473.489" y="-181" fill="#000" font-family="Times,serif" font-size="14" text-anchor="middle">ANY</text><text x="473.489" y="-164.2" fill="#000" font-family="Times,serif" font-size="14" text-anchor="middle">neq(c)</text></g></g></svg>